<svg width="16" height="16" viewBox="0 0 16 16" fill="none" xmlns="http://www.w3.org/2000/svg">
<g clip-path="url(#clip0_534_1799)">
<path d="M5.13742 3.98867C5.24331 3.8732 5.38793 3.80625 5.54013 3.80224C5.69233 3.79823 5.83994 3.85748 5.95115 3.96723C6.06237 4.07698 6.1283 4.22845 6.13474 4.38901C6.14119 4.54957 6.08763 4.70638 5.9856 4.82567L3.57816 7.54389L13.7836 7.18128C13.9375 7.17582 14.0872 7.23511 14.1997 7.34612C14.3122 7.45713 14.3783 7.61076 14.3835 7.77322C14.3886 7.93568 14.3325 8.09366 14.2273 8.2124C14.1221 8.33115 13.9766 8.40093 13.8227 8.4064L3.61723 8.769L6.19239 11.3102C6.30178 11.422 6.36521 11.5746 6.36901 11.7353C6.37281 11.8959 6.31668 12.0517 6.2127 12.1691C6.10873 12.2865 5.96523 12.3561 5.81312 12.3629C5.66101 12.3697 5.51245 12.3132 5.39944 12.2055L1.80034 8.65388C1.68788 8.54287 1.6218 8.38927 1.61662 8.22684C1.61144 8.06441 1.66759 7.90646 1.77272 7.78772L5.13742 3.98867Z" fill="white"/>
</g>
<defs>
<clipPath id="clip0_534_1799">
<rect width="13.9364" height="14.7088" fill="white" transform="matrix(-0.999369 0.0355084 -0.0318729 -0.999492 15.1982 15.1033)"/>
</clipPath>
</defs>
</svg>
