<svg width="14" height="13" viewBox="0 0 14 13" fill="none" xmlns="http://www.w3.org/2000/svg">
<g clip-path="url(#clip0_534_1796)">
<path d="M9.73311 10.0699C9.6236 10.1668 9.47692 10.2205 9.32468 10.2193C9.17244 10.2181 9.02681 10.1621 8.91915 10.0634C8.81149 9.96471 8.75043 9.83122 8.7491 9.69166C8.74778 9.5521 8.80631 9.41765 8.91208 9.31727L11.4048 7.03229H1.19356C1.03956 7.03229 0.891874 6.97621 0.782982 6.87639C0.67409 6.77657 0.612915 6.64119 0.612915 6.50003C0.612915 6.35886 0.67409 6.22348 0.782982 6.12366C0.891874 6.02385 1.03956 5.96777 1.19356 5.96777H11.4048L8.91208 3.68279C8.80631 3.5824 8.74778 3.44795 8.7491 3.30839C8.75043 3.16884 8.81149 3.03534 8.91915 2.93666C9.02681 2.83797 9.17244 2.78199 9.32468 2.78078C9.47692 2.77957 9.6236 2.83322 9.73311 2.93017L13.217 6.12372C13.3258 6.22353 13.387 6.35889 13.387 6.50003C13.387 6.64116 13.3258 6.77652 13.217 6.87633L9.73311 10.0699Z" fill="white"/>
</g>
<defs>
<clipPath id="clip0_534_1796">
<rect width="13.9355" height="12.7742" fill="white" transform="translate(0.0322571 0.112915)"/>
</clipPath>
</defs>
</svg>
