<svg width="24" height="24" viewBox="0 0 24 24" fill="none" xmlns="http://www.w3.org/2000/svg">
<path d="M16.707 18.7069C16.5184 18.8891 16.2658 18.9899 16.0036 18.9876C15.7414 18.9853 15.4906 18.8801 15.3052 18.6947C15.1198 18.5093 15.0146 18.2585 15.0123 17.9963C15.01 17.7341 15.1108 17.4815 15.293 17.2929L19.586 12.9999H2C1.73478 12.9999 1.48043 12.8946 1.29289 12.707C1.10536 12.5195 1 12.2651 1 11.9999C1 11.7347 1.10536 11.4803 1.29289 11.2928C1.48043 11.1053 1.73478 10.9999 2 10.9999H19.586L15.293 6.70692C15.1108 6.51832 15.01 6.26571 15.0123 6.00352C15.0146 5.74132 15.1198 5.49051 15.3052 5.3051C15.4906 5.11969 15.7414 5.01452 16.0036 5.01224C16.2658 5.00997 16.5184 5.11076 16.707 5.29292L22.707 11.2929C22.8945 11.4804 22.9998 11.7348 22.9998 11.9999C22.9998 12.2651 22.8945 12.5194 22.707 12.7069L16.707 18.7069Z" fill="white"/>
</svg>
