<svg width="22" height="23" viewBox="0 0 22 23" fill="none" xmlns="http://www.w3.org/2000/svg">
<path d="M1.89017 11.8172C3.45859 16.0834 7.03542 18.8334 11 18.8334C14.9646 18.8334 18.5414 16.0834 20.1098 11.8172C20.1859 11.6126 20.1859 11.3875 20.1098 11.1829C18.5414 6.91675 14.9646 4.16675 11 4.16675C7.03542 4.16675 3.45859 6.91675 1.89017 11.1829C1.81412 11.3875 1.81412 11.6126 1.89017 11.8172ZM11 6.00008C14.0919 6.00008 16.9134 8.14783 18.2683 11.5001C16.9134 14.8523 14.0919 17.0001 11 17.0001C7.90809 17.0001 5.08659 14.8523 3.73176 11.5001C5.08659 8.14783 7.90809 6.00008 11 6.00008ZM11 15.1667C11.7252 15.1667 12.4341 14.9517 13.0371 14.5488C13.6401 14.1459 14.11 13.5732 14.3876 12.9033C14.6651 12.2333 14.7377 11.496 14.5962 10.7847C14.4547 10.0735 14.1055 9.42015 13.5927 8.90736C13.0799 8.39456 12.4266 8.04535 11.7153 7.90387C11.0041 7.76239 10.2668 7.835 9.59683 8.11252C8.92684 8.39004 8.35418 8.86001 7.95129 9.46299C7.54839 10.066 7.33334 10.7749 7.33334 11.5001C7.33334 12.4725 7.71965 13.4052 8.40728 14.0928C9.09492 14.7804 10.0275 15.1667 11 15.1667ZM11 9.66675C11.3626 9.66675 11.7171 9.77427 12.0186 9.97572C12.32 10.1772 12.555 10.4635 12.6938 10.7985C12.8325 11.1335 12.8689 11.5021 12.7981 11.8577C12.7274 12.2134 12.5528 12.54 12.2964 12.7964C12.04 13.0528 11.7133 13.2274 11.3577 13.2982C11.002 13.3689 10.6334 13.3326 10.2984 13.1939C9.96342 13.0551 9.6771 12.8201 9.47565 12.5186C9.2742 12.2171 9.16667 11.8627 9.16667 11.5001C9.16667 11.0139 9.35983 10.5475 9.70364 10.2037C10.0475 9.8599 10.5138 9.66675 11 9.66675Z" fill="#8C8C8C"/>
</svg>
