<svg width="20" height="20" viewBox="0 0 20 20" fill="none" xmlns="http://www.w3.org/2000/svg">
<path d="M17.0833 3.84083C16.6271 3.28883 16.0541 2.84488 15.4057 2.54098C14.7572 2.23707 14.0495 2.08077 13.3333 2.08333C12.108 2.04623 10.9151 2.48016 10 3.29583C9.0849 2.48016 7.89197 2.04623 6.66667 2.08333C5.95054 2.08077 5.24276 2.23707 4.59431 2.54098C3.94586 2.84488 3.37289 3.28883 2.91667 3.84083C2.1225 4.80417 1.29167 6.54833 1.8425 9.39083C2.72167 13.93 9.31417 17.655 9.5925 17.8075C9.71658 17.8767 9.85628 17.913 9.99834 17.913C10.1404 17.913 10.2801 17.8767 10.4042 17.8075C10.6842 17.6517 17.2767 13.9267 18.1542 9.39083C18.7083 6.54833 17.8775 4.80417 17.0833 3.84083ZM16.5217 9.07417C15.9 12.2833 11.3817 15.2683 10 16.1167C8.05333 14.9417 4.04833 11.9917 3.4825 9.07417C3.055 6.86917 3.64 5.58833 4.20667 4.90167C4.50634 4.54009 4.88232 4.24932 5.30763 4.05021C5.73294 3.85109 6.19705 3.74857 6.66667 3.75C7.16824 3.71238 7.67101 3.80538 8.12594 4.01992C8.58088 4.23446 8.97246 4.56323 9.2625 4.97417C9.33402 5.10578 9.43954 5.2158 9.56804 5.29276C9.69655 5.36973 9.84334 5.41082 9.99313 5.41176C10.1429 5.41269 10.2902 5.37344 10.4197 5.29809C10.5491 5.22273 10.656 5.11404 10.7292 4.98333C11.0187 4.5692 11.4111 4.23765 11.8677 4.02137C12.3244 3.8051 12.8295 3.71157 13.3333 3.75C13.8039 3.74771 14.2692 3.84981 14.6956 4.04896C15.122 4.2481 15.4989 4.53933 15.7992 4.90167C16.3642 5.58833 16.9492 6.86917 16.5217 9.07417Z" fill="white"/>
</svg>
