<svg width="246" height="48" viewBox="0 0 246 48" fill="none" xmlns="http://www.w3.org/2000/svg">
<path d="M0 0H246V48H0V0Z" fill="#09D85F" fill-opacity="0.75"/>
<path d="M26.4012 16.88L22.2252 28H20.1132L15.9212 16.88H17.8732L21.1692 26.128L24.4812 16.88H26.4012Z" fill="white"/>
<path d="M28.8546 18.016C28.5239 18.016 28.2466 17.904 28.0226 17.68C27.7986 17.456 27.6866 17.1787 27.6866 16.848C27.6866 16.5173 27.7986 16.24 28.0226 16.016C28.2466 15.792 28.5239 15.68 28.8546 15.68C29.1746 15.68 29.4466 15.792 29.6706 16.016C29.8946 16.24 30.0066 16.5173 30.0066 16.848C30.0066 17.1787 29.8946 17.456 29.6706 17.68C29.4466 17.904 29.1746 18.016 28.8546 18.016ZM29.7506 19.184V28H27.9266V19.184H29.7506Z" fill="white"/>
<path d="M40.2253 23.376C40.2253 23.7067 40.204 24.0053 40.1613 24.272H33.4253C33.4786 24.976 33.74 25.5413 34.2093 25.968C34.6786 26.3947 35.2546 26.608 35.9373 26.608C36.9186 26.608 37.612 26.1973 38.0173 25.376H39.9853C39.7186 26.1867 39.2333 26.8533 38.5293 27.376C37.836 27.888 36.972 28.144 35.9373 28.144C35.0946 28.144 34.3373 27.9573 33.6653 27.584C33.004 27.2 32.4813 26.6667 32.0973 25.984C31.724 25.2907 31.5373 24.4907 31.5373 23.584C31.5373 22.6773 31.7186 21.8827 32.0813 21.2C32.4546 20.5067 32.972 19.9733 33.6333 19.6C34.3053 19.2267 35.0733 19.04 35.9373 19.04C36.7693 19.04 37.5106 19.2213 38.1613 19.584C38.812 19.9467 39.3186 20.4587 39.6813 21.12C40.044 21.7707 40.2253 22.5227 40.2253 23.376ZM38.3213 22.8C38.3106 22.128 38.0706 21.5893 37.6013 21.184C37.132 20.7787 36.5506 20.576 35.8573 20.576C35.228 20.576 34.6893 20.7787 34.2413 21.184C33.7933 21.5787 33.5266 22.1173 33.4413 22.8H38.3213Z" fill="white"/>
<path d="M53.8603 19.184L51.1243 28H49.2043L47.4283 21.488L45.6523 28H43.7323L40.9803 19.184H42.8363L44.6763 26.272L46.5483 19.184H48.4523L50.2443 26.24L52.0683 19.184H53.8603Z" fill="white"/>
<path d="M67.6197 16.88L63.9397 23.968V28H62.1157V23.968L58.4197 16.88H60.4517L63.0277 22.336L65.6037 16.88H67.6197Z" fill="white"/>
<path d="M72.8912 28.144C72.0592 28.144 71.3072 27.9573 70.6352 27.584C69.9632 27.2 69.4352 26.6667 69.0512 25.984C68.6672 25.2907 68.4752 24.4907 68.4752 23.584C68.4752 22.688 68.6725 21.8933 69.0672 21.2C69.4619 20.5067 70.0005 19.9733 70.6832 19.6C71.3659 19.2267 72.1285 19.04 72.9712 19.04C73.8139 19.04 74.5765 19.2267 75.2592 19.6C75.9418 19.9733 76.4805 20.5067 76.8752 21.2C77.2699 21.8933 77.4672 22.688 77.4672 23.584C77.4672 24.48 77.2645 25.2747 76.8592 25.968C76.4539 26.6613 75.8992 27.2 75.1952 27.584C74.5019 27.9573 73.7339 28.144 72.8912 28.144ZM72.8912 26.56C73.3605 26.56 73.7979 26.448 74.2032 26.224C74.6192 26 74.9552 25.664 75.2112 25.216C75.4672 24.768 75.5952 24.224 75.5952 23.584C75.5952 22.944 75.4725 22.4053 75.2272 21.968C74.9819 21.52 74.6565 21.184 74.2512 20.96C73.8459 20.736 73.4085 20.624 72.9392 20.624C72.4699 20.624 72.0325 20.736 71.6272 20.96C71.2325 21.184 70.9179 21.52 70.6832 21.968C70.4485 22.4053 70.3312 22.944 70.3312 23.584C70.3312 24.5333 70.5712 25.2693 71.0512 25.792C71.5419 26.304 72.1552 26.56 72.8912 26.56Z" fill="white"/>
<path d="M87.2543 19.184V28H85.4303V26.96C85.1423 27.3227 84.7636 27.6107 84.2943 27.824C83.8356 28.0267 83.345 28.128 82.8223 28.128C82.129 28.128 81.505 27.984 80.9503 27.696C80.4063 27.408 79.9743 26.9813 79.6543 26.416C79.345 25.8507 79.1903 25.168 79.1903 24.368V19.184H80.9983V24.096C80.9983 24.8853 81.1956 25.4933 81.5903 25.92C81.985 26.336 82.5237 26.544 83.2063 26.544C83.889 26.544 84.4276 26.336 84.8223 25.92C85.2276 25.4933 85.4303 24.8853 85.4303 24.096V19.184H87.2543Z" fill="white"/>
<path d="M91.4849 20.464C91.7516 20.016 92.1036 19.6693 92.5409 19.424C92.9889 19.168 93.5169 19.04 94.1249 19.04V20.928H93.6609C92.9463 20.928 92.4023 21.1093 92.0289 21.472C91.6663 21.8347 91.4849 22.464 91.4849 23.36V28H89.6609V19.184H91.4849V20.464Z" fill="white"/>
<path d="M107.734 20.192C107.734 20.7573 107.6 21.2907 107.334 21.792C107.067 22.2933 106.64 22.704 106.054 23.024C105.467 23.3333 104.715 23.488 103.798 23.488H101.782V28H99.9578V16.88H103.798C104.651 16.88 105.371 17.0293 105.958 17.328C106.555 17.616 106.998 18.0107 107.286 18.512C107.584 19.0133 107.734 19.5733 107.734 20.192ZM103.798 22C104.491 22 105.008 21.8453 105.35 21.536C105.691 21.216 105.862 20.768 105.862 20.192C105.862 18.976 105.174 18.368 103.798 18.368H101.782V22H103.798Z" fill="white"/>
<path d="M111.297 20.464C111.564 20.016 111.916 19.6693 112.353 19.424C112.801 19.168 113.329 19.04 113.937 19.04V20.928H113.473C112.759 20.928 112.215 21.1093 111.841 21.472C111.479 21.8347 111.297 22.464 111.297 23.36V28H109.473V19.184H111.297V20.464Z" fill="white"/>
<path d="M119.438 28.144C118.606 28.144 117.854 27.9573 117.182 27.584C116.51 27.2 115.982 26.6667 115.598 25.984C115.214 25.2907 115.022 24.4907 115.022 23.584C115.022 22.688 115.219 21.8933 115.614 21.2C116.009 20.5067 116.547 19.9733 117.23 19.6C117.913 19.2267 118.675 19.04 119.518 19.04C120.361 19.04 121.123 19.2267 121.806 19.6C122.489 19.9733 123.027 20.5067 123.422 21.2C123.817 21.8933 124.014 22.688 124.014 23.584C124.014 24.48 123.811 25.2747 123.406 25.968C123.001 26.6613 122.446 27.2 121.742 27.584C121.049 27.9573 120.281 28.144 119.438 28.144ZM119.438 26.56C119.907 26.56 120.345 26.448 120.75 26.224C121.166 26 121.502 25.664 121.758 25.216C122.014 24.768 122.142 24.224 122.142 23.584C122.142 22.944 122.019 22.4053 121.774 21.968C121.529 21.52 121.203 21.184 120.798 20.96C120.393 20.736 119.955 20.624 119.486 20.624C119.017 20.624 118.579 20.736 118.174 20.96C117.779 21.184 117.465 21.52 117.23 21.968C116.995 22.4053 116.878 22.944 116.878 23.584C116.878 24.5333 117.118 25.2693 117.598 25.792C118.089 26.304 118.702 26.56 119.438 26.56Z" fill="white"/>
<path d="M129.225 26.368L131.721 19.184H133.657L130.297 28H128.121L124.777 19.184H126.729L129.225 26.368Z" fill="white"/>
<path d="M135.964 18.016C135.633 18.016 135.356 17.904 135.132 17.68C134.908 17.456 134.796 17.1787 134.796 16.848C134.796 16.5173 134.908 16.24 135.132 16.016C135.356 15.792 135.633 15.68 135.964 15.68C136.284 15.68 136.556 15.792 136.78 16.016C137.004 16.24 137.116 16.5173 137.116 16.848C137.116 17.1787 137.004 17.456 136.78 17.68C136.556 17.904 136.284 18.016 135.964 18.016ZM136.86 19.184V28H135.036V19.184H136.86Z" fill="white"/>
<path d="M138.647 23.552C138.647 22.6667 138.828 21.8827 139.191 21.2C139.564 20.5173 140.065 19.9893 140.695 19.616C141.335 19.232 142.044 19.04 142.823 19.04C143.399 19.04 143.964 19.168 144.519 19.424C145.084 19.6693 145.532 20 145.863 20.416V16.16H147.703V28H145.863V26.672C145.564 27.0987 145.148 27.4507 144.615 27.728C144.092 28.0053 143.489 28.144 142.807 28.144C142.039 28.144 141.335 27.952 140.695 27.568C140.065 27.1733 139.564 26.6293 139.191 25.936C138.828 25.232 138.647 24.4373 138.647 23.552ZM145.863 23.584C145.863 22.976 145.735 22.448 145.479 22C145.233 21.552 144.908 21.2107 144.503 20.976C144.097 20.7413 143.66 20.624 143.191 20.624C142.721 20.624 142.284 20.7413 141.879 20.976C141.473 21.2 141.143 21.536 140.887 21.984C140.641 22.4213 140.519 22.944 140.519 23.552C140.519 24.16 140.641 24.6933 140.887 25.152C141.143 25.6107 141.473 25.9627 141.879 26.208C142.295 26.4427 142.732 26.56 143.191 26.56C143.66 26.56 144.097 26.4427 144.503 26.208C144.908 25.9733 145.233 25.632 145.479 25.184C145.735 24.7253 145.863 24.192 145.863 23.584Z" fill="white"/>
<path d="M158.178 23.376C158.178 23.7067 158.157 24.0053 158.114 24.272H151.378C151.432 24.976 151.693 25.5413 152.162 25.968C152.632 26.3947 153.208 26.608 153.89 26.608C154.872 26.608 155.565 26.1973 155.97 25.376H157.938C157.672 26.1867 157.186 26.8533 156.482 27.376C155.789 27.888 154.925 28.144 153.89 28.144C153.048 28.144 152.29 27.9573 151.618 27.584C150.957 27.2 150.434 26.6667 150.05 25.984C149.677 25.2907 149.49 24.4907 149.49 23.584C149.49 22.6773 149.672 21.8827 150.034 21.2C150.408 20.5067 150.925 19.9733 151.586 19.6C152.258 19.2267 153.026 19.04 153.89 19.04C154.722 19.04 155.464 19.2213 156.114 19.584C156.765 19.9467 157.272 20.4587 157.634 21.12C157.997 21.7707 158.178 22.5227 158.178 23.376ZM156.274 22.8C156.264 22.128 156.024 21.5893 155.554 21.184C155.085 20.7787 154.504 20.576 153.81 20.576C153.181 20.576 152.642 20.7787 152.194 21.184C151.746 21.5787 151.48 22.1173 151.394 22.8H156.274Z" fill="white"/>
<path d="M161.797 20.464C162.064 20.016 162.416 19.6693 162.853 19.424C163.301 19.168 163.829 19.04 164.437 19.04V20.928H163.973C163.259 20.928 162.715 21.1093 162.341 21.472C161.979 21.8347 161.797 22.464 161.797 23.36V28H159.973V19.184H161.797V20.464Z" fill="white"/>
<path d="M181.982 16.88V28H180.158V20.384L176.766 28H175.502L172.094 20.384V28H170.27V16.88H172.238L176.142 25.6L180.03 16.88H181.982Z" fill="white"/>
<path d="M183.772 23.552C183.772 22.6667 183.953 21.8827 184.316 21.2C184.689 20.5173 185.19 19.9893 185.82 19.616C186.46 19.232 187.164 19.04 187.932 19.04C188.625 19.04 189.228 19.1787 189.74 19.456C190.262 19.7227 190.678 20.0587 190.988 20.464V19.184H192.828V28H190.988V26.688C190.678 27.104 190.257 27.4507 189.724 27.728C189.19 28.0053 188.582 28.144 187.9 28.144C187.142 28.144 186.449 27.952 185.82 27.568C185.19 27.1733 184.689 26.6293 184.316 25.936C183.953 25.232 183.772 24.4373 183.772 23.552ZM190.988 23.584C190.988 22.976 190.86 22.448 190.604 22C190.358 21.552 190.033 21.2107 189.628 20.976C189.222 20.7413 188.785 20.624 188.316 20.624C187.846 20.624 187.409 20.7413 187.004 20.976C186.598 21.2 186.268 21.536 186.012 21.984C185.766 22.4213 185.644 22.944 185.644 23.552C185.644 24.16 185.766 24.6933 186.012 25.152C186.268 25.6107 186.598 25.9627 187.004 26.208C187.42 26.4427 187.857 26.56 188.316 26.56C188.785 26.56 189.222 26.4427 189.628 26.208C190.033 25.9733 190.358 25.632 190.604 25.184C190.86 24.7253 190.988 24.192 190.988 23.584Z" fill="white"/>
<path d="M197.351 20.672V25.552C197.351 25.8827 197.426 26.1227 197.575 26.272C197.735 26.4107 198.002 26.48 198.375 26.48H199.495V28H198.055C197.234 28 196.605 27.808 196.167 27.424C195.73 27.04 195.511 26.416 195.511 25.552V20.672H194.471V19.184H195.511V16.992H197.351V19.184H199.495V20.672H197.351Z" fill="white"/>
<path d="M200.569 23.584C200.569 22.6773 200.75 21.8827 201.113 21.2C201.486 20.5067 201.998 19.9733 202.649 19.6C203.299 19.2267 204.046 19.04 204.889 19.04C205.955 19.04 206.835 19.296 207.529 19.808C208.233 20.3093 208.707 21.0293 208.953 21.968H206.985C206.825 21.5307 206.569 21.1893 206.217 20.944C205.865 20.6987 205.422 20.576 204.889 20.576C204.142 20.576 203.545 20.8427 203.097 21.376C202.659 21.8987 202.441 22.6347 202.441 23.584C202.441 24.5333 202.659 25.2747 203.097 25.808C203.545 26.3413 204.142 26.608 204.889 26.608C205.945 26.608 206.643 26.144 206.985 25.216H208.953C208.697 26.112 208.217 26.8267 207.513 27.36C206.809 27.8827 205.934 28.144 204.889 28.144C204.046 28.144 203.299 27.9573 202.649 27.584C201.998 27.2 201.486 26.6667 201.113 25.984C200.75 25.2907 200.569 24.4907 200.569 23.584Z" fill="white"/>
<path d="M215.33 19.04C216.002 19.04 216.6 19.184 217.122 19.472C217.656 19.76 218.072 20.1867 218.37 20.752C218.68 21.3173 218.834 22 218.834 22.8V28H217.026V23.072C217.026 22.2827 216.829 21.68 216.434 21.264C216.04 20.8373 215.501 20.624 214.818 20.624C214.136 20.624 213.592 20.8373 213.186 21.264C212.792 21.68 212.594 22.2827 212.594 23.072V28H210.77V16.16H212.594V20.208C212.904 19.8347 213.293 19.5467 213.762 19.344C214.242 19.1413 214.765 19.04 215.33 19.04Z" fill="white"/>
<path d="M229.241 23.376C229.241 23.7067 229.22 24.0053 229.177 24.272H222.441C222.494 24.976 222.756 25.5413 223.225 25.968C223.694 26.3947 224.27 26.608 224.953 26.608C225.934 26.608 226.628 26.1973 227.033 25.376H229.001C228.734 26.1867 228.249 26.8533 227.545 27.376C226.852 27.888 225.988 28.144 224.953 28.144C224.11 28.144 223.353 27.9573 222.681 27.584C222.02 27.2 221.497 26.6667 221.113 25.984C220.74 25.2907 220.553 24.4907 220.553 23.584C220.553 22.6773 220.734 21.8827 221.097 21.2C221.47 20.5067 221.988 19.9733 222.649 19.6C223.321 19.2267 224.089 19.04 224.953 19.04C225.785 19.04 226.526 19.2213 227.177 19.584C227.828 19.9467 228.334 20.4587 228.697 21.12C229.06 21.7707 229.241 22.5227 229.241 23.376ZM227.337 22.8C227.326 22.128 227.086 21.5893 226.617 21.184C226.148 20.7787 225.566 20.576 224.873 20.576C224.244 20.576 223.705 20.7787 223.257 21.184C222.809 21.5787 222.542 22.1173 222.457 22.8H227.337Z" fill="white"/>
<path d="M234.236 28.144C233.543 28.144 232.919 28.0213 232.364 27.776C231.82 27.52 231.388 27.1787 231.068 26.752C230.748 26.3147 230.577 25.8293 230.556 25.296H232.444C232.476 25.6693 232.652 25.984 232.972 26.24C233.303 26.4853 233.713 26.608 234.204 26.608C234.716 26.608 235.111 26.512 235.388 26.32C235.676 26.1173 235.82 25.8613 235.82 25.552C235.82 25.2213 235.66 24.976 235.34 24.816C235.031 24.656 234.535 24.48 233.852 24.288C233.191 24.1067 232.652 23.9307 232.236 23.76C231.82 23.5893 231.457 23.328 231.148 22.976C230.849 22.624 230.7 22.16 230.7 21.584C230.7 21.1147 230.839 20.688 231.116 20.304C231.393 19.9093 231.788 19.6 232.3 19.376C232.823 19.152 233.42 19.04 234.092 19.04C235.095 19.04 235.9 19.296 236.508 19.808C237.127 20.3093 237.457 20.9973 237.5 21.872H235.676C235.644 21.4773 235.484 21.1627 235.196 20.928C234.908 20.6933 234.519 20.576 234.028 20.576C233.548 20.576 233.18 20.6667 232.924 20.848C232.668 21.0293 232.54 21.2693 232.54 21.568C232.54 21.8027 232.625 22 232.796 22.16C232.967 22.32 233.175 22.448 233.42 22.544C233.665 22.6293 234.028 22.7413 234.508 22.88C235.148 23.0507 235.671 23.2267 236.076 23.408C236.492 23.5787 236.849 23.8347 237.148 24.176C237.447 24.5173 237.601 24.9707 237.612 25.536C237.612 26.0373 237.473 26.4853 237.196 26.88C236.919 27.2747 236.524 27.584 236.012 27.808C235.511 28.032 234.919 28.144 234.236 28.144Z" fill="white"/>
</svg>
