<svg width="26" height="26" viewBox="0 0 26 26" fill="none" xmlns="http://www.w3.org/2000/svg">
<path d="M8.06969 6.45522C8.25206 6.26682 8.50113 6.15758 8.76325 6.15104C9.02538 6.1445 9.27959 6.24117 9.47113 6.42024C9.66267 6.5993 9.77622 6.84643 9.78731 7.10841C9.79841 7.37038 9.70617 7.62623 9.53046 7.82085L5.38432 12.2558L22.9604 11.6642C23.2254 11.6553 23.4832 11.752 23.6769 11.9332C23.8707 12.1143 23.9845 12.3649 23.9934 12.63C24.0024 12.8951 23.9056 13.1528 23.7245 13.3466C23.5434 13.5403 23.2927 13.6542 23.0276 13.6631L5.4516 14.2547L9.88659 18.4009C10.075 18.5832 10.1842 18.8323 10.1908 19.0944C10.1973 19.3565 10.1006 19.6108 9.92158 19.8023C9.74251 19.9938 9.49538 20.1074 9.23341 20.1185C8.97144 20.1296 8.71559 20.0373 8.52096 19.8616L2.32251 14.0669C2.12883 13.8858 2.01502 13.6351 2.0061 13.3701C1.99718 13.1051 2.09388 12.8474 2.27494 12.6537L8.06969 6.45522Z" fill="white"/>
</svg>
