<svg width="26" height="26" viewBox="0 0 26 26" fill="none" xmlns="http://www.w3.org/2000/svg">
<path d="M8.06994 6.4551C8.2523 6.2667 8.50137 6.15746 8.7635 6.15092C9.02562 6.14437 9.27983 6.24105 9.47137 6.42011C9.66291 6.59918 9.77646 6.84631 9.78756 7.10828C9.79866 7.37025 9.70642 7.62611 9.53071 7.82073L5.38456 12.2557L22.9606 11.6641C23.2257 11.6552 23.4834 11.7519 23.6772 11.933C23.8709 12.1142 23.9848 12.3648 23.9937 12.6299C24.0026 12.895 23.9059 13.1527 23.7247 13.3465C23.5436 13.5402 23.293 13.654 23.0279 13.663L5.45184 14.2546L9.88684 18.4007C10.0752 18.5831 10.1845 18.8322 10.191 19.0943C10.1976 19.3564 10.1009 19.6106 9.92182 19.8022C9.74276 19.9937 9.49562 20.1073 9.23365 20.1184C8.97168 20.1295 8.71583 20.0372 8.52121 19.8615L2.32275 14.0668C2.12908 13.8856 2.01527 13.635 2.00635 13.37C1.99743 13.105 2.09413 12.8473 2.27518 12.6536L8.06994 6.4551Z" fill="white"/>
</svg>
