<svg width="24" height="24" viewBox="0 0 24 24" fill="none" xmlns="http://www.w3.org/2000/svg">
<path d="M14 17.0122C14.1978 17.0122 14.391 16.9535 14.5555 16.8436C14.7199 16.7337 14.848 16.5776 14.9237 16.3949C14.9993 16.2122 15.0192 16.0111 14.9806 15.8172C14.942 15.6232 14.8468 15.4451 14.707 15.3052L11.414 12.0122L14.707 8.71921C14.8025 8.62696 14.8787 8.51662 14.9311 8.39461C14.9835 8.27261 15.0111 8.14139 15.0123 8.00861C15.0134 7.87583 14.9881 7.74415 14.9378 7.62125C14.8875 7.49836 14.8133 7.3867 14.7194 7.29281C14.6255 7.19892 14.5139 7.12467 14.391 7.07439C14.2681 7.0241 14.1364 6.9988 14.0036 6.99996C13.8708 7.00111 13.7396 7.0287 13.6176 7.08111C13.4956 7.13351 13.3852 7.2097 13.293 7.30521L9.293 11.3052C9.10553 11.4927 9.00021 11.747 9.00021 12.0122C9.00021 12.2774 9.10553 12.5317 9.293 12.7192L13.293 16.7192C13.4805 16.9068 13.7348 17.0122 14 17.0122Z" fill="black"/>
</svg>
