<svg width="24" height="24" viewBox="0 0 24 24" fill="none" xmlns="http://www.w3.org/2000/svg">
<path d="M3.515 22.875C3.67119 22.9615 3.84769 23.0047 4.02618 22.9999C4.20467 22.9952 4.37863 22.9427 4.53 22.848L12 18.179L19.47 22.848C19.6214 22.9426 19.7953 22.995 19.9738 22.9997C20.1522 23.0043 20.3286 22.9612 20.4848 22.8746C20.6409 22.7881 20.771 22.6614 20.8616 22.5076C20.9522 22.3538 21 22.1785 21 22V4C21 3.20435 20.6839 2.44129 20.1213 1.87868C19.5587 1.31607 18.7956 1 18 1H6C5.20435 1 4.44129 1.31607 3.87868 1.87868C3.31607 2.44129 3 3.20435 3 4V22C2.99991 22.1785 3.04763 22.3539 3.13819 22.5077C3.22876 22.6616 3.35886 22.7884 3.515 22.875ZM5 4C5 3.73478 5.10536 3.48043 5.29289 3.29289C5.48043 3.10536 5.73478 3 6 3H18C18.2652 3 18.5196 3.10536 18.7071 3.29289C18.8946 3.48043 19 3.73478 19 4V20.2L12.53 16.156C12.3711 16.0567 12.1874 16.004 12 16.004C11.8126 16.004 11.6289 16.0567 11.47 16.156L5 20.2V4Z" fill="black"/>
</svg>
