<svg width="20" height="20" viewBox="0 0 20 20" fill="none" xmlns="http://www.w3.org/2000/svg">
<path d="M17.083 3.84087C16.6268 3.28887 16.0538 2.84492 15.4054 2.54102C14.7569 2.23711 14.0492 2.08081 13.333 2.08337C12.1077 2.04627 10.9148 2.4802 9.99969 3.29587C9.08459 2.4802 7.89166 2.04627 6.66636 2.08337C5.95023 2.08081 5.24245 2.23711 4.594 2.54102C3.94555 2.84492 3.37258 3.28887 2.91636 3.84087C2.12219 4.80421 1.29136 6.54837 1.84219 9.39087C2.72136 13.93 9.31386 17.655 9.59219 17.8075C9.71627 17.8767 9.85597 17.913 9.99803 17.913C10.1401 17.913 10.2798 17.8767 10.4039 17.8075C10.6839 17.6517 17.2764 13.9267 18.1539 9.39087C18.708 6.54837 17.8772 4.80421 17.083 3.84087ZM16.5214 9.07421C15.8997 12.2834 11.3814 15.2684 9.99969 16.1167C8.05303 14.9417 4.04802 11.9917 3.48219 9.07421C3.05469 6.86921 3.63969 5.58837 4.20636 4.90171C4.50603 4.54013 4.88201 4.24936 5.30732 4.05025C5.73264 3.85113 6.19674 3.74861 6.66636 3.75004C7.16793 3.71242 7.6707 3.80542 8.12563 4.01996C8.58057 4.2345 8.97215 4.56327 9.26219 4.97421C9.33371 5.10582 9.43923 5.21584 9.56773 5.2928C9.69624 5.36977 9.84303 5.41086 9.99282 5.4118C10.1426 5.41273 10.2899 5.37348 10.4194 5.29813C10.5488 5.22277 10.6557 5.11408 10.7289 4.98337C11.0183 4.56924 11.4108 4.23769 11.8674 4.02142C12.3241 3.80514 12.8292 3.71161 13.333 3.75004C13.8036 3.74775 14.2689 3.84985 14.6953 4.049C15.1216 4.24814 15.4986 4.53937 15.7989 4.90171C16.3639 5.58837 16.9489 6.86921 16.5214 9.07421Z" fill="white"/>
</svg>
