<svg width="26" height="26" viewBox="0 0 26 26" fill="none" xmlns="http://www.w3.org/2000/svg">
<path d="M8.07006 6.45522C8.25243 6.26682 8.5015 6.15758 8.76362 6.15104C9.02574 6.1445 9.27995 6.24117 9.47149 6.42024C9.66303 6.5993 9.77658 6.84643 9.78768 7.10841C9.79878 7.37038 9.70654 7.62623 9.53083 7.82085L5.38468 12.2558L22.9607 11.6642C23.2258 11.6553 23.4835 11.752 23.6773 11.9332C23.871 12.1143 23.9849 12.3649 23.9938 12.63C24.0027 12.8951 23.906 13.1528 23.7249 13.3466C23.5437 13.5403 23.2931 13.6542 23.028 13.6631L5.45197 14.2547L9.88696 18.4009C10.0754 18.5832 10.1846 18.8323 10.1911 19.0944C10.1977 19.3565 10.101 19.6108 9.92194 19.8023C9.74288 19.9938 9.49575 20.1074 9.23377 20.1185C8.9718 20.1296 8.71595 20.0373 8.52133 19.8616L2.32287 14.0669C2.1292 13.8858 2.01539 13.6351 2.00647 13.3701C1.99755 13.1051 2.09425 12.8474 2.27531 12.6537L8.07006 6.45522Z" fill="white"/>
</svg>
