<svg width="20" height="20" viewBox="0 0 20 20" fill="none" xmlns="http://www.w3.org/2000/svg">
<path d="M2.92917 19.0625C3.05932 19.1346 3.20641 19.1706 3.35515 19.1666C3.50389 19.1627 3.64886 19.119 3.775 19.04L10 15.1492L16.225 19.04C16.3511 19.1189 16.4961 19.1625 16.6448 19.1664C16.7935 19.1703 16.9405 19.1344 17.0706 19.0622C17.2007 18.9901 17.3092 18.8845 17.3847 18.7563C17.4602 18.6282 17.5 18.4821 17.5 18.3334V3.33337C17.5 2.67033 17.2366 2.03445 16.7678 1.56561C16.2989 1.09677 15.663 0.833374 15 0.833374H5C4.33696 0.833374 3.70107 1.09677 3.23223 1.56561C2.76339 2.03445 2.5 2.67033 2.5 3.33337V18.3334C2.49993 18.4822 2.53969 18.6283 2.61516 18.7565C2.69063 18.8847 2.79905 18.9904 2.92917 19.0625ZM4.16667 3.33337C4.16667 3.11236 4.25446 2.9004 4.41074 2.74412C4.56702 2.58784 4.77899 2.50004 5 2.50004H15C15.221 2.50004 15.433 2.58784 15.5893 2.74412C15.7455 2.9004 15.8333 3.11236 15.8333 3.33337V16.8334L10.4417 13.4634C10.3092 13.3806 10.1562 13.3367 10 13.3367C9.84382 13.3367 9.69078 13.3806 9.55833 13.4634L4.16667 16.8334V3.33337Z" fill="black"/>
</svg>
