<svg width="24" height="24" viewBox="0 0 24 24" fill="none" xmlns="http://www.w3.org/2000/svg">
<path d="M17.0123 9.99997C17.0122 9.80222 16.9536 9.60892 16.8437 9.44451C16.7338 9.2801 16.5776 9.15196 16.3949 9.07629C16.2122 9.00062 16.0112 8.98082 15.8173 9.01939C15.6233 9.05795 15.4451 9.15316 15.3053 9.29297L12.0123 12.586L8.71929 9.29297C8.62704 9.19746 8.5167 9.12128 8.39469 9.06887C8.27269 9.01646 8.14147 8.98887 8.00869 8.98772C7.87591 8.98656 7.74423 9.01187 7.62133 9.06215C7.49844 9.11243 7.38679 9.18668 7.29289 9.28057C7.199 9.37447 7.12475 9.48612 7.07447 9.60902C7.02419 9.73191 6.99888 9.86359 7.00004 9.99637C7.00119 10.1292 7.02878 10.2604 7.08119 10.3824C7.1336 10.5044 7.20978 10.6147 7.30529 10.707L11.3053 14.707C11.4928 14.8944 11.7471 14.9998 12.0123 14.9998C12.2775 14.9998 12.5318 14.8944 12.7193 14.707L16.7193 10.707C16.9068 10.5195 17.0122 10.2652 17.0123 9.99997Z" fill="#797979"/>
</svg>
