<svg width="26" height="26" viewBox="0 0 26 26" fill="none" xmlns="http://www.w3.org/2000/svg">
<path d="M8.07003 6.45522C8.2524 6.26682 8.50146 6.15758 8.76359 6.15104C9.02571 6.1445 9.27992 6.24117 9.47146 6.42024C9.663 6.5993 9.77655 6.84643 9.78765 7.10841C9.79875 7.37038 9.70651 7.62623 9.5308 7.82085L5.38465 12.2558L22.9607 11.6642C23.2258 11.6553 23.4835 11.752 23.6773 11.9332C23.871 12.1143 23.9849 12.3649 23.9938 12.63C24.0027 12.8951 23.906 13.1528 23.7248 13.3466C23.5437 13.5403 23.293 13.6542 23.028 13.6631L5.45193 14.2547L9.88693 18.4009C10.0753 18.5832 10.1846 18.8323 10.1911 19.0944C10.1977 19.3565 10.101 19.6108 9.92191 19.8023C9.74285 19.9938 9.49572 20.1074 9.23374 20.1185C8.97177 20.1296 8.71592 20.0373 8.5213 19.8616L2.32284 14.0669C2.12917 13.8858 2.01536 13.6351 2.00644 13.3701C1.99752 13.1051 2.09422 12.8474 2.27527 12.6537L8.07003 6.45522Z" fill="white"/>
</svg>
