<svg width="16" height="16" viewBox="0 0 16 16" fill="none" xmlns="http://www.w3.org/2000/svg">
<g clip-path="url(#clip0_531_1642)">
<path d="M5.13742 3.98861C5.24331 3.87314 5.38793 3.80619 5.54013 3.80218C5.69233 3.79817 5.83994 3.85742 5.95115 3.96717C6.06237 4.07692 6.1283 4.22839 6.13474 4.38895C6.14119 4.54951 6.08763 4.70632 5.9856 4.82561L3.57816 7.54383L13.7836 7.18122C13.9375 7.17576 14.0872 7.23505 14.1997 7.34606C14.3122 7.45707 14.3783 7.6107 14.3835 7.77316C14.3886 7.93562 14.3325 8.0936 14.2273 8.21234C14.1221 8.33109 13.9766 8.40087 13.8227 8.40634L3.61723 8.76894L6.19239 11.3101C6.30178 11.4219 6.36521 11.5746 6.36901 11.7352C6.37281 11.8959 6.31668 12.0517 6.2127 12.1691C6.10873 12.2865 5.96523 12.3561 5.81312 12.3629C5.66101 12.3697 5.51245 12.3131 5.39944 12.2054L1.80034 8.65382C1.68788 8.54281 1.6218 8.3892 1.61662 8.22678C1.61144 8.06435 1.66759 7.9064 1.77272 7.78766L5.13742 3.98861Z" fill="white"/>
</g>
<defs>
<clipPath id="clip0_531_1642">
<rect width="13.9364" height="14.7088" fill="white" transform="matrix(-0.999369 0.0355084 -0.0318729 -0.999492 15.1982 15.1032)"/>
</clipPath>
</defs>
</svg>
