<svg width="26" height="26" viewBox="0 0 26 26" fill="none" xmlns="http://www.w3.org/2000/svg">
<path d="M8.07003 6.4551C8.2524 6.2667 8.50146 6.15746 8.76359 6.15092C9.02571 6.14437 9.27992 6.24105 9.47146 6.42011C9.663 6.59918 9.77655 6.84631 9.78765 7.10828C9.79875 7.37025 9.70651 7.62611 9.5308 7.82073L5.38465 12.2557L22.9607 11.6641C23.2258 11.6552 23.4835 11.7519 23.6773 11.933C23.871 12.1142 23.9849 12.3648 23.9938 12.6299C24.0027 12.895 23.906 13.1527 23.7248 13.3465C23.5437 13.5402 23.293 13.654 23.028 13.663L5.45193 14.2546L9.88693 18.4007C10.0753 18.5831 10.1846 18.8322 10.1911 19.0943C10.1977 19.3564 10.101 19.6106 9.92191 19.8022C9.74285 19.9937 9.49572 20.1073 9.23374 20.1184C8.97177 20.1295 8.71592 20.0372 8.5213 19.8615L2.32284 14.0668C2.12917 13.8856 2.01536 13.635 2.00644 13.37C1.99752 13.105 2.09422 12.8473 2.27527 12.6536L8.07003 6.4551Z" fill="white"/>
</svg>
