<svg width="26" height="26" viewBox="0 0 26 26" fill="none" xmlns="http://www.w3.org/2000/svg">
<path d="M8.06969 6.4551C8.25206 6.2667 8.50113 6.15746 8.76325 6.15092C9.02538 6.14437 9.27959 6.24105 9.47113 6.42011C9.66267 6.59918 9.77622 6.84631 9.78731 7.10828C9.79841 7.37025 9.70617 7.62611 9.53046 7.82073L5.38432 12.2557L22.9604 11.6641C23.2254 11.6552 23.4832 11.7519 23.6769 11.933C23.8707 12.1142 23.9845 12.3648 23.9934 12.6299C24.0024 12.895 23.9056 13.1527 23.7245 13.3465C23.5434 13.5402 23.2927 13.654 23.0276 13.663L5.4516 14.2546L9.88659 18.4007C10.075 18.5831 10.1842 18.8322 10.1908 19.0943C10.1973 19.3564 10.1006 19.6106 9.92158 19.8022C9.74251 19.9937 9.49538 20.1073 9.23341 20.1184C8.97144 20.1295 8.71559 20.0372 8.52096 19.8615L2.32251 14.0668C2.12883 13.8856 2.01502 13.635 2.0061 13.37C1.99718 13.105 2.09388 12.8473 2.27494 12.6536L8.06969 6.4551Z" fill="white"/>
</svg>
