<svg width="26" height="26" viewBox="0 0 26 26" fill="none" xmlns="http://www.w3.org/2000/svg">
<path d="M8.07018 6.4551C8.25255 6.2667 8.50162 6.15746 8.76374 6.15092C9.02587 6.14437 9.28008 6.24105 9.47162 6.42011C9.66316 6.59918 9.7767 6.84631 9.7878 7.10828C9.7989 7.37025 9.70666 7.62611 9.53095 7.82073L5.3848 12.2557L22.9608 11.6641C23.2259 11.6552 23.4837 11.7519 23.6774 11.933C23.8711 12.1142 23.985 12.3648 23.9939 12.6299C24.0028 12.895 23.9061 13.1527 23.725 13.3465C23.5439 13.5402 23.2932 13.654 23.0281 13.663L5.45209 14.2546L9.88708 18.4007C10.0755 18.5831 10.1847 18.8322 10.1913 19.0943C10.1978 19.3564 10.1011 19.6106 9.92207 19.8022C9.743 19.9937 9.49587 20.1073 9.2339 20.1184C8.97193 20.1295 8.71607 20.0372 8.52145 19.8615L2.323 14.0668C2.12932 13.8856 2.01551 13.635 2.00659 13.37C1.99767 13.105 2.09437 12.8473 2.27543 12.6536L8.07018 6.4551Z" fill="white"/>
</svg>
