<svg width="24" height="24" viewBox="0 0 24 24" fill="none" xmlns="http://www.w3.org/2000/svg">
<path d="M16.707 18.707C16.5184 18.8891 16.2658 18.9899 16.0036 18.9877C15.7414 18.9854 15.4906 18.8802 15.3052 18.6948C15.1198 18.5094 15.0146 18.2586 15.0123 17.9964C15.01 17.7342 15.1108 17.4816 15.293 17.293L19.586 13H2C1.73478 13 1.48043 12.8946 1.29289 12.7071C1.10536 12.5196 1 12.2652 1 12C1 11.7348 1.10536 11.4804 1.29289 11.2929C1.48043 11.1053 1.73478 11 2 11H19.586L15.293 6.70698C15.1108 6.51838 15.01 6.26578 15.0123 6.00358C15.0146 5.74138 15.1198 5.49057 15.3052 5.30516C15.4906 5.11975 15.7414 5.01458 16.0036 5.01231C16.2658 5.01003 16.5184 5.11082 16.707 5.29298L22.707 11.293C22.8945 11.4805 22.9998 11.7348 22.9998 12C22.9998 12.2651 22.8945 12.5195 22.707 12.707L16.707 18.707Z" fill="white"/>
</svg>
